<svg width="16" height="18" viewBox="0 0 16 18" fill="none" xmlns="http://www.w3.org/2000/svg">
<path d="M15.75 12.375C15.75 13.1133 15.2578 13.7461 14.625 13.9922V16.3125H14.9062C15.3633 16.3125 15.75 16.6992 15.75 17.1562C15.75 17.6484 15.3633 18 14.9062 18H2.8125C1.23047 18 0 16.7695 0 15.1875V2.8125C0 1.26562 1.23047 0 2.8125 0H14.0625C14.9766 0 15.75 0.773438 15.75 1.6875V12.375ZM12.9375 16.3125V14.0625H2.8125C2.17969 14.0625 1.6875 14.5898 1.6875 15.1875C1.6875 15.8203 2.17969 16.3125 2.8125 16.3125H12.9375ZM14.0625 12.375V1.6875H2.8125C2.17969 1.6875 1.6875 2.21484 1.6875 2.8125V12.6211C2.00391 12.4805 2.39062 12.375 2.8125 12.375H14.0625ZM5.34375 5.625C4.85156 5.625 4.5 5.27344 4.5 4.78125C4.5 4.32422 4.85156 3.9375 5.34375 3.9375H11.5312C11.9883 3.9375 12.375 4.32422 12.375 4.78125C12.375 5.27344 11.9883 5.625 11.5312 5.625H5.34375ZM5.34375 8.4375C4.85156 8.4375 4.5 8.08594 4.5 7.59375C4.5 7.13672 4.85156 6.75 5.34375 6.75H11.5312C11.9883 6.75 12.375 7.13672 12.375 7.59375C12.375 8.08594 11.9883 8.4375 11.5312 8.4375H5.34375Z" fill="#000"/>
</svg>
