<svg width="57" height="57" viewBox="0 0 57 57" fill="none" xmlns="http://www.w3.org/2000/svg">
<ellipse cx="28.8333" cy="28.5885" rx="28" ry="28.3832" fill="#9D90FA" fill-opacity="0.25"/>
<path d="M38.4336 27.755H28.6555V17.843C28.6555 17.7211 28.5571 17.6213 28.4368 17.6213H27.7258C26.2911 17.6198 24.8701 17.9055 23.5445 18.462C22.219 19.0185 21.0148 19.8349 20.0012 20.8643C19.0033 21.8728 18.2083 23.0683 17.6606 24.3844C17.0918 25.7509 16.802 27.2006 16.802 28.6974C16.802 30.1941 17.0918 31.641 17.6606 33.0075C18.2102 34.3241 18.9977 35.5104 20.0012 36.5277C21.0047 37.5449 22.1723 38.3432 23.4739 38.9003C24.8196 39.4791 26.2668 39.776 27.7286 39.7735C29.1633 39.7749 30.5843 39.4892 31.9099 38.9327C33.2354 38.3762 34.4396 37.5598 35.4532 36.5305C36.4567 35.5132 37.2442 34.3297 37.7938 33.0103C38.3647 31.6462 38.6577 30.1792 38.6551 28.6974V27.9767C38.6524 27.8547 38.554 27.755 38.4336 27.755ZM40.8372 26.2166L40.7661 25.435C40.5336 22.8849 39.418 20.479 37.6188 18.6635C35.8213 16.8428 33.4525 15.7163 30.9223 15.4787L30.1485 15.4066C30.02 15.3955 29.9106 15.4953 29.9106 15.6256V26.261C29.9106 26.3829 30.009 26.4827 30.1293 26.4827L40.6184 26.455C40.7469 26.4522 40.8481 26.3441 40.8372 26.2166Z" fill="#9D90FA"/>
</svg>
