<svg width="24" height="24" viewBox="0 0 24 24" fill="none" xmlns="http://www.w3.org/2000/svg">
<path d="M18 19.875H5.0625C2.25 19.875 0 17.625 0 14.8125C0 12.6328 1.40625 10.7344 3.375 10.0664V10.0312C3.375 6.79688 6.01172 4.125 9.28125 4.125C11.0391 4.125 12.6562 4.93359 13.7461 6.19922C14.2734 5.95312 14.8359 5.8125 15.4688 5.8125C17.7891 5.8125 19.6875 7.71094 19.6875 10.0312C19.6875 10.2773 19.6523 10.4883 19.6172 10.7344C21.3047 11.4727 22.5 13.1602 22.5 15.0938C22.5 17.6602 20.4961 19.7344 18 19.875ZM13.2891 8.23828L12.4453 7.28906C11.6719 6.41016 10.5469 5.8125 9.28125 5.8125C6.92578 5.8125 5.0625 7.71094 5.0625 10.0312V11.2617L3.90234 11.6484C2.60156 12.1055 1.6875 13.3711 1.6875 14.8125C1.6875 16.6758 3.16406 18.1875 5.0625 18.1875H17.8945C19.5117 18.1172 20.8125 16.7461 20.8125 15.0938C20.8125 13.8281 20.0391 12.7383 18.9492 12.2812L17.7539 11.7539L17.9648 10.4531C17.9648 10.3125 18 10.1719 18 10.0312C18 8.66016 16.8398 7.5 15.4688 7.5C15.082 7.5 14.7305 7.60547 14.4141 7.74609L13.2891 8.23828Z" fill="#000"/>
</svg>
