<svg width="29" height="32" viewBox="0 0 29 32" fill="none" xmlns="http://www.w3.org/2000/svg">
<path fill-rule="evenodd" clip-rule="evenodd" d="M18.9451 0.164219C18.5544 0.240206 17.9465 0.41389 17.5882 0.544153C17.23 0.674416 16.4701 1.01093 15.9057 1.29317C15.3412 1.5754 14.3642 2.15073 13.7346 2.57409C13.105 2.99744 12.128 3.74645 11.5636 4.25665C10.9991 4.75599 10.2175 5.52672 9.82673 5.97178C9.43594 6.40599 8.7412 7.28527 8.26357 7.91487C7.79679 8.54448 7.08034 9.61915 6.6787 10.303C6.2662 10.9869 5.6583 12.1376 5.31094 12.854C4.97442 13.5705 4.47508 14.7211 4.21456 15.405C3.94317 16.0889 3.60666 17.1418 3.45469 17.7389C3.24844 18.5856 3.17245 19.2043 3.12903 20.5613C3.08561 21.7011 3.11817 22.5803 3.20502 23.1122C3.281 23.5573 3.45469 24.2412 3.58495 24.632C3.71521 25.0228 3.96488 25.6089 4.12771 25.9346C4.29054 26.2603 4.63791 26.803 4.88758 27.1287C5.13725 27.4543 5.58232 27.9211 5.87541 28.1599C6.1685 28.3988 6.7764 28.8004 7.22146 29.0501C7.66653 29.3106 8.77376 29.8099 9.6639 30.1573C10.5649 30.5155 11.8784 30.9823 12.5948 31.1994C13.3113 31.4165 14.4836 31.6879 15.2001 31.8182C16.2747 32.0027 16.8067 32.0244 18.2396 31.981C19.5096 31.9376 20.2152 31.8724 20.8448 31.6987C21.3224 31.5793 22.1257 31.2645 22.6251 31.0149C23.2113 30.7218 23.7649 30.331 24.1557 29.9511C24.4922 29.6145 24.9047 29.0718 25.0784 28.7027C25.3497 28.1491 25.404 27.8994 25.4366 27.0201C25.4692 26.1951 25.4257 25.7826 25.2086 24.9576C25.0675 24.3932 24.7419 23.4487 24.4922 22.8734C24.2534 22.2872 23.7974 21.3537 23.4826 20.8109C23.1678 20.2573 22.5491 19.3129 22.0932 18.7159C21.6481 18.1188 20.8882 17.2395 20.4106 16.7511C19.933 16.2734 19.1405 15.5678 18.6521 15.177C18.1744 14.7971 17.6968 14.4823 17.5991 14.4823C17.5014 14.4823 17.4254 14.504 17.4254 14.5366C17.4254 14.5691 17.7294 14.884 18.0876 15.2422C18.4567 15.6004 19.0211 16.2083 19.3359 16.5991C19.6507 16.9899 19.9221 17.3481 19.9221 17.4132C19.9221 17.4784 19.4228 16.9899 18.804 16.3277C18.1853 15.6655 17.4146 14.9274 17.0889 14.6777C16.7632 14.428 16.2096 14.0481 15.8514 13.831C15.4932 13.6247 14.8093 13.3208 14.3317 13.158C13.6478 12.9409 13.2353 12.8757 12.3777 12.8757C11.6613 12.8649 11.0859 12.93 10.6951 13.0494C10.3695 13.1471 9.87015 13.3751 9.58791 13.5596L9.06686 13.8853C8.89317 13.3425 8.84975 13.006 8.84975 12.7997C8.84975 12.5935 8.94745 12.105 9.056 11.7142C9.17541 11.3234 9.51192 10.6395 9.81587 10.1945C10.109 9.74941 10.6843 9.02211 11.0859 8.57704C11.4984 8.14283 12.2257 7.48066 12.7034 7.12244C13.181 6.76422 13.9951 6.26487 14.5271 6.00435C15.0481 5.74382 15.8948 5.39645 16.4267 5.23363C17.2843 4.9731 17.534 4.94053 19.1622 4.94053C20.5517 4.92968 21.1488 4.9731 21.8218 5.13593C22.2994 5.24448 23.081 5.47244 23.5586 5.64613C24.0363 5.81981 24.6659 6.14547 24.959 6.37343C25.2629 6.59053 25.6537 6.98132 25.8274 7.23099C26.0119 7.48066 26.2724 7.87145 26.4136 8.09941C26.5438 8.32737 26.8044 8.59876 26.978 8.70731C27.1626 8.80501 27.434 8.89185 27.5859 8.89185C27.7488 8.89185 27.9876 8.76158 28.183 8.56619C28.4326 8.30566 28.4978 8.14283 28.4978 7.78461C28.4978 7.46981 28.3892 7.1333 28.183 6.77507C28.0201 6.48198 27.5642 5.95007 27.1843 5.6027C26.8044 5.25534 26.1205 4.78856 25.6754 4.5606C25.2303 4.32178 24.5465 4.03955 24.1557 3.92014C23.7649 3.80073 22.9833 3.64876 22.4188 3.57277C21.7567 3.47507 20.9534 3.45336 20.1935 3.49678C19.5313 3.5402 18.5869 3.67047 18.0767 3.77902C17.5665 3.89843 16.7849 4.12639 16.3399 4.27836C15.8948 4.44119 15.2109 4.73428 14.8201 4.92968C14.4294 5.12507 13.6695 5.58099 13.1376 5.93922C12.6057 6.29744 11.7481 6.97047 11.2488 7.4481C10.7494 7.91487 9.98955 8.76158 9.5662 9.32606C9.13199 9.89053 8.56752 10.7481 8.30699 11.2257C7.89449 11.953 7.80765 12.0507 7.78594 11.8228C7.76423 11.6708 7.90534 11.0846 8.08988 10.5201C8.27442 9.95566 8.62179 9.11981 8.86061 8.67474C9.09942 8.22968 9.55534 7.52409 9.881 7.10073C10.1958 6.68823 10.8146 6.00435 11.2488 5.59185C11.6938 5.16849 12.4646 4.5606 12.9748 4.23494C13.4849 3.90928 14.2991 3.45336 14.7984 3.2254C15.2869 2.99744 16.1662 2.67178 16.7415 2.4981C17.3277 2.33527 18.1419 2.12902 18.5652 2.06389C18.9886 1.9879 19.8896 1.89021 20.5734 1.83593C21.5396 1.75994 21.8652 1.69481 22.0172 1.54284C22.1257 1.43428 22.2126 1.20632 22.2126 1.02178C22.2126 0.82639 22.1149 0.609285 21.9629 0.468166C21.8218 0.337903 21.6047 0.175074 21.4636 0.109943C21.3333 0.0448111 20.8665 -0.00946518 20.4323 0.00139008C20.009 0.00139008 19.3359 0.0773769 18.9451 0.164219ZM11.1077 16.1108C10.8146 16.1977 10.4238 16.4365 10.2284 16.6319C10.0004 16.849 9.82676 17.1746 9.73992 17.522C9.65308 17.8368 9.63137 18.2493 9.67479 18.499C9.70735 18.7378 9.84847 19.1503 9.96788 19.4217C10.0981 19.6931 10.4672 20.1815 10.8037 20.5181C11.1837 20.9088 11.7047 21.2779 12.2692 21.5602C12.7468 21.799 13.5067 22.1355 13.9518 22.2875C14.3968 22.4503 15.5692 22.8302 16.557 23.1342C17.7837 23.5141 18.5544 23.6878 18.9777 23.6986C19.5422 23.7095 19.6399 23.6769 19.8787 23.4164C20.0307 23.2319 20.1393 22.9713 20.1393 22.7868C20.1393 22.6131 20.0633 22.2766 19.9656 22.0595C19.8787 21.8315 19.5856 21.3539 19.336 20.9957C19.0754 20.6375 18.2396 19.7039 17.4689 18.9115C16.6113 18.0322 15.7754 17.3049 15.3087 17.001C14.8853 16.7404 14.2557 16.4148 13.8975 16.2736C13.5175 16.1325 12.9097 16.0131 12.432 15.9914C11.9001 15.9588 11.4442 16.0023 11.0968 16.1108H11.1077Z" fill="#181D27"/>
<path d="M2.66225 15.0468C2.28232 15.5136 1.79383 16.2083 1.56587 16.5991C1.33791 16.9899 1.02311 17.6412 0.86028 18.0645C0.697451 18.4879 0.480345 19.1609 0.371793 19.5843C0.26324 20.0076 0.122122 20.8543 0.0569901 21.4839C-0.0189967 22.2655 -0.0189967 22.9603 0.0569901 23.7093C0.122122 24.3063 0.26324 25.1639 0.382648 25.6089C0.491201 26.054 0.719161 26.7379 0.88199 27.1287C1.05567 27.5195 1.29449 28.0188 1.43561 28.2468C1.57673 28.4639 1.86982 28.8547 2.08692 29.0935C2.31488 29.3432 2.79252 29.7557 3.15074 30.0053C3.50896 30.2659 4.09515 30.6132 4.45337 30.7978C4.81159 30.9714 5.58232 31.2754 6.15765 31.4599C6.74383 31.6445 7.49284 31.829 7.82936 31.8833C8.26357 31.9376 8.45896 31.9267 8.55666 31.8182C8.6435 31.7241 8.65074 31.6481 8.57837 31.5902C8.51324 31.5359 8.02475 31.2645 7.49284 30.9823C6.95008 30.7001 6.15765 30.2224 5.71258 29.9076C5.26752 29.6037 4.62706 29.0826 4.3014 28.757C3.96488 28.4313 3.48725 27.8668 3.24844 27.5086C2.99877 27.1504 2.70567 26.6619 2.58627 26.4231C2.456 26.1843 2.26061 25.6741 2.1412 25.2833C2.02179 24.8925 1.85896 24.1435 1.79383 23.6007C1.69613 22.8517 1.68528 22.3524 1.78298 21.4297C1.85896 20.7784 2.01094 19.7688 2.1412 19.2043C2.26061 18.6399 2.53199 17.6846 2.73824 17.0876C2.94449 16.4905 3.27015 15.709 3.44383 15.3507C3.61752 14.9925 3.74778 14.6017 3.72607 14.4823C3.70436 14.3629 3.61752 14.2543 3.50896 14.2326C3.40041 14.2109 3.09646 14.4932 2.66225 15.0468Z" fill="#181D27"/>
</svg>
